<?xml version="1.0" encoding="UTF-8"?><svg id="Icons" xmlns="http://www.w3.org/2000/svg" viewBox="0 0 60 60"><defs><style>.cls-1{fill:#a183e2;}.cls-2{fill:#8276d6;}.cls-3{fill:#6058bc;}</style></defs><path class="cls-1" d="m41.989,18.111l16.719,11.327c.389.264.389.86,0,1.124l-16.719,11.327c-.536.363-1.193-.23-.929-.839l4.797-11.05-4.797-11.05c-.264-.609.393-1.202.929-.839Z"/><path class="cls-2" d="m21.989,18.111l16.719,11.327c.389.264.389.86,0,1.124l-16.719,11.327c-.536.363-1.193-.23-.929-.839l4.797-11.05-4.797-11.05c-.264-.609.393-1.202.929-.839Z"/><path class="cls-3" d="m1.989,18.111l16.719,11.327c.389.264.389.86,0,1.124L1.989,41.889c-.536.363-1.193-.23-.929-.839l4.797-11.05L1.06,18.95c-.264-.609.393-1.202.929-.839Z"/></svg>